<?xml version="1.0" encoding="UTF-8"?>
<svg width="38px" height="24px" viewBox="0 0 38 24" version="1.1" xmlns="http://www.w3.org/2000/svg" xmlns:xlink="http://www.w3.org/1999/xlink">
    <!-- Generator: Sketch 45.1 (43504) - http://www.bohemiancoding.com/sketch -->
    <title>Behance</title>
    <desc>Created with Sketch.</desc>
    <defs></defs>
    <g id="Page-1" stroke="none" stroke-width="1" fill="none" fill-rule="evenodd">
        <g id="Portfolio-page" transform="translate(-593.000000, -2817.000000)" fill="#FF6F4A">
            <g id="Group-2" transform="translate(0.000000, 1957.000000)">
                <g id="SINGLE-GREY" transform="translate(593.000000, 853.000000)">
                    <path d="M15.826,17.832 C16.586,17.45 17.161,17.025 17.553,16.562 C18.253,15.733 18.6,14.634 18.6,13.272 C18.6,11.949 18.253,10.814 17.562,9.864 C16.41,8.317 14.456,7.525 11.695,7.484 L0.755,7.484 L0.755,29.817 L10.956,29.817 C12.106,29.817 13.17,29.719 14.154,29.517 C15.139,29.313 15.99,28.941 16.711,28.395 C17.353,27.919 17.887,27.333 18.313,26.638 C18.988,25.588 19.324,24.4 19.324,23.077 C19.324,21.793 19.029,20.701 18.443,19.804 C17.851,18.905 16.98,18.249 15.826,17.832 L15.826,17.832 Z M5.268,11.362 L10.196,11.362 C11.279,11.362 12.171,11.479 12.873,11.711 C13.683,12.046 14.088,12.733 14.088,13.776 C14.088,14.711 13.78,15.365 13.168,15.735 C12.552,16.105 11.753,16.29 10.773,16.29 L5.268,16.29 L5.268,11.362 L5.268,11.362 Z M13.058,25.548 C12.513,25.809 11.746,25.941 10.764,25.941 L5.268,25.941 L5.268,19.985 L10.842,19.985 C11.811,19.993 12.567,20.121 13.106,20.363 C14.068,20.799 14.546,21.596 14.546,22.76 C14.546,24.133 14.051,25.059 13.058,25.548 Z M24.163,8.525 L33.864,8.525 L33.864,11.304 L24.163,11.304 L24.163,8.525 Z M35.9,16.081 C36.591,17.063 37.035,18.202 37.237,19.496 C37.356,20.253 37.403,21.349 37.384,22.775 L25.187,22.775 C25.26,24.43 25.837,25.592 26.94,26.258 C27.607,26.672 28.411,26.88 29.354,26.88 C30.347,26.88 31.159,26.627 31.782,26.124 C32.124,25.849 32.426,25.471 32.684,24.987 L37.153,24.987 C37.035,25.964 36.492,26.961 35.532,27.972 C34.032,29.577 31.933,30.38 29.234,30.38 C27.004,30.38 25.038,29.704 23.339,28.348 C21.631,26.995 20.782,24.789 20.782,21.738 C20.782,18.876 21.551,16.681 23.087,15.153 C24.627,13.629 26.619,12.862 29.072,12.862 C30.53,12.862 31.842,13.121 33.009,13.638 C34.179,14.152 35.142,14.968 35.9,16.081 Z M25.294,19.925 C25.454,18.85 25.844,17.998 26.462,17.369 C27.08,16.74 27.954,16.426 29.074,16.426 C30.108,16.426 30.972,16.721 31.674,17.314 C32.368,17.911 32.76,18.778 32.839,19.925 L25.294,19.925 L25.294,19.925 Z" id="Behance"></path>
                </g>
            </g>
        </g>
    </g>
</svg>