<?xml version="1.0" encoding="UTF-8"?>
<svg width="37px" height="38px" viewBox="0 0 37 38" version="1.1" xmlns="http://www.w3.org/2000/svg" xmlns:xlink="http://www.w3.org/1999/xlink">
    <!-- Generator: Sketch 45.1 (43504) - http://www.bohemiancoding.com/sketch -->
    <title>Instagram</title>
    <desc>Created with Sketch.</desc>
    <defs></defs>
    <g id="Page-1" stroke="none" stroke-width="1" fill="none" fill-rule="evenodd">
        <g id="Portfolio-page" transform="translate(-849.000000, -2810.000000)" fill="#FF6F4A">
            <g id="Group-2" transform="translate(0.000000, 1957.000000)">
                <g id="SINGLE-GREY" transform="translate(593.000000, 853.000000)">
                    <path d="M288.456,0.428 L260.509,0.428 C258.102,0.428 256.151,2.374 256.151,4.776 L256.151,32.743 C256.151,35.144 258.102,37.091 260.509,37.091 L288.456,37.091 C290.863,37.091 292.814,35.144 292.814,32.743 L292.814,4.776 C292.814,2.374 290.863,0.428 288.456,0.428 L288.456,0.428 Z M282.503,6.156 C282.503,5.524 283.016,5.011 283.648,5.011 L287.085,5.011 C287.718,5.011 288.231,5.524 288.231,6.156 L288.231,9.594 C288.231,10.226 287.718,10.739 287.085,10.739 L283.648,10.739 C283.016,10.739 282.503,10.226 282.503,9.594 L282.503,6.156 L282.503,6.156 Z M274.525,11.768 C278.419,11.768 281.576,14.918 281.576,18.802 C281.576,22.687 278.419,25.836 274.525,25.836 C270.632,25.836 267.475,22.687 267.475,18.802 C267.475,14.918 270.632,11.768 274.525,11.768 L274.525,11.768 Z M289.377,32.508 C289.377,33.14 288.864,33.654 288.231,33.654 L260.734,33.654 C260.101,33.654 259.588,33.14 259.588,32.508 L259.588,15.322 L264.171,15.322 C263.574,16.181 263.372,17.784 263.372,18.802 C263.372,24.937 268.376,29.929 274.525,29.929 C280.675,29.929 285.679,24.937 285.679,18.802 C285.679,17.784 285.534,16.206 284.794,15.322 L289.377,15.322 L289.377,32.508 L289.377,32.508 Z" id="Instagram"></path>
                </g>
            </g>
        </g>
    </g>
</svg>