<?xml version="1.0" encoding="UTF-8"?>
<svg width="38px" height="34px" viewBox="0 0 38 34" version="1.1" xmlns="http://www.w3.org/2000/svg" xmlns:xlink="http://www.w3.org/1999/xlink">
    <!-- Generator: Sketch 45.1 (43504) - http://www.bohemiancoding.com/sketch -->
    <title>Fill 88</title>
    <desc>Created with Sketch.</desc>
    <defs></defs>
    <g id="Page-1" stroke="none" stroke-width="1" fill="none" fill-rule="evenodd">
        <g id="Portfolio-page" transform="translate(-682.000000, -2812.000000)" fill="#FF6F4A">
            <g id="Group-2" transform="translate(0.000000, 1957.000000)">
                <g id="SINGLE-GREY" transform="translate(593.000000, 853.000000)">
                    <path d="M90.677,13.119 L97.867,13.119 L97.867,35.901 L90.677,35.901 L90.677,13.119 Z M117.512,12.9 C122.622,12.9 126.637,16.177 126.637,23.234 L126.637,35.901 L118.484,35.901 L118.484,24.112 C118.484,21.026 117.209,18.92 114.404,18.92 C112.259,18.92 111.066,20.341 110.511,21.711 C110.303,22.203 110.335,22.888 110.335,23.573 L110.335,35.901 L102.258,35.901 C102.258,35.901 102.362,15.018 102.258,13.119 L110.335,13.119 L110.335,16.695 C110.812,15.131 113.393,12.9 117.512,12.9 Z M94.139,2.365 C96.792,2.365 98.423,4.066 98.475,6.314 C98.475,8.522 96.792,10.27 94.089,10.27 L94.037,10.27 C91.435,10.27 89.747,8.528 89.747,6.32 C89.747,4.07 91.484,2.365 94.139,2.365 Z" id="Fill-88"></path>
                </g>
            </g>
        </g>
    </g>
</svg>