<?xml version="1.0" encoding="UTF-8"?>
<svg width="38px" height="32px" viewBox="0 0 38 32" version="1.1" xmlns="http://www.w3.org/2000/svg" xmlns:xlink="http://www.w3.org/1999/xlink">
    <!-- Generator: Sketch 45.1 (43504) - http://www.bohemiancoding.com/sketch -->
    <title>Twitter</title>
    <desc>Created with Sketch.</desc>
    <defs></defs>
    <g id="Page-1" stroke="none" stroke-width="1" fill="none" fill-rule="evenodd">
        <g id="Portfolio-page" transform="translate(-770.000000, -2813.000000)" fill="#FF6F4A">
            <g id="Group-2" transform="translate(0.000000, 1957.000000)">
                <g id="SINGLE-GREY" transform="translate(593.000000, 853.000000)">
                    <path d="M213.76,3.618 C212.274,4.52 210.632,5.176 208.877,5.527 C207.479,3.997 205.481,3.041 203.269,3.041 C199.029,3.041 195.588,6.569 195.588,10.92 C195.588,11.538 195.654,12.137 195.786,12.714 C189.4,12.385 183.739,9.252 179.947,4.479 C179.285,5.647 178.907,7.002 178.907,8.445 C178.907,11.177 180.263,13.589 182.326,15.002 C181.068,14.964 179.881,14.606 178.843,14.02 L178.843,14.116 C178.843,17.935 181.492,21.121 185.01,21.842 C184.366,22.027 183.686,22.12 182.985,22.12 C182.49,22.12 182.007,22.072 181.539,21.98 C182.517,25.109 185.353,27.388 188.716,27.449 C186.087,29.563 182.772,30.823 179.173,30.823 C178.553,30.823 177.94,30.787 177.34,30.715 C180.74,32.947 184.781,34.252 189.119,34.252 C203.254,34.252 210.981,22.248 210.981,11.835 C210.981,11.492 210.975,11.15 210.962,10.814 C212.463,9.703 213.767,8.316 214.793,6.736 C213.417,7.362 211.935,7.786 210.381,7.976 C211.968,7.002 213.186,5.458 213.76,3.618" id="Twitter"></path>
                </g>
            </g>
        </g>
    </g>
</svg>